<svg version="1.1" xmlns="http://www.w3.org/2000/svg" xmlns:xlink="http://www.w3.org/1999/xlink" viewBox="0 0 500 500" enable-background="new 0 0 500 500" xml:space="preserve" style="background-color:black">
<style>
.svg1 {
stroke-dasharray: 400;
stroke-dashoffset: 1644;
animation: dash 15s infinite ;
}
@keyframes dash {
from {
stroke-dashoffset: 1644;
stroke: #FFFFFF;
}
to {
stroke-dasharray: 822;
stroke: #FFFFFF;
}
}
</style><defs><filter id="f1"><feConvolveMatrix kernelMatrix="1 1 0 0 0 0 0 1 -1"/></filter></defs><path class="svg1" filter="url(#f1)" style="fill: none; stroke: white; stroke-width: 0.9; stroke-linecap: round; stroke-linejoin:  miter; stroke-miterlimit: 1;" d="M118 170 236 57ZM382 170 264 57ZM382 330 264 443ZM118 330 236 443ZM170 236 57 45ZM330 236 443 45ZM330 264 443 455ZM170 264 57 455ZM236 57 45 241ZM264 57 455 241ZM264 443 455 259ZM236 443 45 259ZM57 45 241 157ZM443 45 259 157ZM443 455 259 343ZM57 455 241 343ZM45 241 157 179ZM455 241 343 179ZM455 259 343 321ZM45 259 157 321ZM241 157 179 22ZM259 157 321 22ZM259 343 321 478ZM241 343 179 478ZM157 179 22 139ZM343 179 478 139ZM343 321 478 361ZM157 321 22 361ZM179 22 139 98ZM321 22 361 98ZM321 478 361 402ZM179 478 139 402ZM22 139 98 11ZM478 139 402 11ZM478 361 402 489ZM22 361 98 489ZM139 98 11 68ZM361 98 489 68ZM361 402 489 432ZM139 402 11 432ZM98 11 68 116ZM402 11 432 116ZM402 489 432 384ZM98 489 68 384ZM11 68 116 59ZM489 68 384 59ZM489 432 384 441ZM11 432 116 441ZM68 116 59 118ZM432 116 441 118ZM432 384 441 382ZM68 384 59 382ZM116 59 118 139ZM384 59 382 139ZM384 441 382 361ZM116 441 118 361ZM59 118 139 130ZM441 118 361 130ZM441 382 361 370ZM59 382 139 370ZM118 139 130 19ZM382 139 370 19ZM382 361 370 481ZM118 361 130 481ZM139 130 19 176ZM361 130 481 176ZM361 370 481 324ZM139 370 19 324ZM130 19 176 142ZM370 19 324 142ZM370 481 324 358ZM130 481 176 358ZM19 176 142 28ZM481 176 358 28ZM481 324 358 472ZM19 324 142 472ZM176 142 28 107ZM324 142 472 107ZM324 358 472 393ZM176 358 28 393ZM142 28 107 181ZM358 28 393 181ZM358 472 393 319ZM142 472 107 319ZM28 107 181 190ZM472 107 319 190ZM472 393 319 310ZM28 393 181 310ZM107 181 190 63ZM393 181 310 63ZM393 319 310 437ZM107 319 190 437ZM181 190 63 38ZM319 190 437 38ZM319 310 437 462ZM181 310 63 462ZM190 63 38 54ZM310 63 462 54ZM310 437 462 446ZM190 437 38 446ZM63 38 54 212ZM437 38 446 212ZM437 462 446 288ZM63 462 54 288ZM38 54 212 31ZM462 54 288 31ZM462 446 288 469ZM38 446 212 469ZM54 212 31 35ZM446 212 469 35ZM446 288 469 465ZM54 288 31 465ZM212 31 35 58ZM288 31 465 58ZM288 469 465 442ZM212 469 35 442ZM31 35 58 80ZM469 35 442 80ZM469 465 442 420ZM31 465 58 420ZM35 58 80 169ZM465 58 420 169ZM465 442 420 331ZM35 442 80 331ZM58 80 169 247ZM442 80 331 247ZM442 420 331 253ZM58 420 169 253ZM80 169 247 117ZM420 169 253 117ZM420 331 253 383ZM80 331 247 383ZM169 247 117 62ZM331 247 383 62ZM331 253 383 438ZM169 253 117 438ZM247 117 62 3ZM253 117 438 3ZM253 383 438 497ZM247 383 62 497Z" /></svg>