<svg version="1.1" xmlns="http://www.w3.org/2000/svg" xmlns:xlink="http://www.w3.org/1999/xlink" viewBox="0 0 500 500" enable-background="new 0 0 500 500" xml:space="preserve" style="background-color:black">
<style>
.svg1 {
stroke-dasharray: 400;
stroke-dashoffset: 1644;
animation: dash 15s infinite ;
}
@keyframes dash {
from {
stroke-dashoffset: 1644;
stroke: #00FFFF;
}
to {
stroke-dasharray: 822;
stroke: #00FFFF;
}
}
</style><defs><filter id="f1"><feConvolveMatrix kernelMatrix="1 1 0 0 0 0 0 1 -1"/></filter></defs><path class="svg1" filter="url(#f1)" style="fill: none; stroke: white; stroke-width: 0.9; stroke-linecap: round; stroke-linejoin:  miter; stroke-miterlimit: 1;" d="M119 21 132 30ZM381 21 368 30ZM381 479 368 470ZM119 479 132 470ZM21 132 30 187ZM479 132 470 187ZM479 368 470 313ZM21 368 30 313ZM132 30 187 226ZM368 30 313 226ZM368 470 313 274ZM132 470 187 274ZM30 187 226 171ZM470 187 274 171ZM470 313 274 329ZM30 313 226 329ZM187 226 171 155ZM313 226 329 155ZM313 274 329 345ZM187 274 171 345ZM226 171 155 116ZM274 171 345 116ZM274 329 345 384ZM226 329 155 384ZM171 155 116 37ZM329 155 384 37ZM329 345 384 463ZM171 345 116 463ZM155 116 37 110ZM345 116 463 110ZM345 384 463 390ZM155 384 37 390ZM116 37 110 167ZM384 37 390 167ZM384 463 390 333ZM116 463 110 333ZM37 110 167 46ZM463 110 333 46ZM463 390 333 454ZM37 390 167 454ZM110 167 46 129ZM390 167 454 129ZM390 333 454 371ZM110 333 46 371ZM167 46 129 20ZM333 46 371 20ZM333 454 371 480ZM167 454 129 480ZM46 129 20 247ZM454 129 480 247ZM454 371 480 253ZM46 371 20 253ZM129 20 247 239ZM371 20 253 239ZM371 480 253 261ZM129 480 247 261Z" /></svg>