<svg version="1.1" xmlns="http://www.w3.org/2000/svg" xmlns:xlink="http://www.w3.org/1999/xlink" viewBox="0 0 500 500" enable-background="new 0 0 500 500" xml:space="preserve" style="background-color:black">
<style>
.svg1 {
stroke-dasharray: 400;
stroke-dashoffset: 1644;
animation: dash 15s infinite ;
}
@keyframes dash {
from {
stroke-dashoffset: 1644;
stroke: #7FFF00;
}
to {
stroke-dasharray: 822;
stroke: #7FFF00;
}
}
</style><defs><filter id="f1"><feConvolveMatrix kernelMatrix="1 1 0 0 0 0 0 1 -1"/></filter></defs><path class="svg1" filter="url(#f1)" style="fill: none; stroke: white; stroke-width: 0.9; stroke-linecap: round; stroke-linejoin:  miter; stroke-miterlimit: 1;" d="M208 182 157 200ZM292 182 343 200ZM292 318 343 300ZM208 318 157 300ZM182 157 200 174ZM318 157 300 174ZM318 343 300 326ZM182 343 200 326ZM157 200 174 138ZM343 200 326 138ZM343 300 326 362ZM157 300 174 362ZM200 174 138 191ZM300 174 362 191ZM300 326 362 309ZM200 326 138 309ZM174 138 191 128ZM326 138 309 128ZM326 362 309 372ZM174 362 191 372ZM138 191 128 224ZM362 191 372 224ZM362 309 372 276ZM138 309 128 276ZM191 128 224 22ZM309 128 276 22ZM309 372 276 478ZM191 372 224 478ZM128 224 22 192ZM372 224 478 192ZM372 276 478 308ZM128 276 22 308ZM224 22 192 88ZM276 22 308 88ZM276 478 308 412ZM224 478 192 412ZM22 192 88 116ZM478 192 412 116ZM478 308 412 384ZM22 308 88 384ZM192 88 116 91ZM308 88 384 91ZM308 412 384 409ZM192 412 116 409ZM88 116 91 199ZM412 116 409 199ZM412 384 409 301ZM88 384 91 301ZM116 91 199 23ZM384 91 301 23ZM384 409 301 477ZM116 409 199 477ZM91 199 23 5ZM409 199 477 5ZM409 301 477 495ZM91 301 23 495ZM199 23 5 177ZM301 23 495 177ZM301 477 495 323ZM199 477 5 323ZM23 5 177 68ZM477 5 323 68ZM477 495 323 432ZM23 495 177 432ZM5 177 68 245ZM495 177 432 245ZM495 323 432 255ZM5 323 68 255ZM177 68 245 12ZM323 68 255 12ZM323 432 255 488ZM177 432 245 488ZM68 245 12 51ZM432 245 488 51ZM432 255 488 449ZM68 255 12 449ZM245 12 51 87ZM255 12 449 87ZM255 488 449 413ZM245 488 51 413ZM12 51 87 146ZM488 51 413 146ZM488 449 413 354ZM12 449 87 354ZM51 87 146 124ZM449 87 354 124ZM449 413 354 376ZM51 413 146 376ZM87 146 124 237ZM413 146 376 237ZM413 354 376 263ZM87 354 124 263ZM146 124 237 129ZM354 124 263 129ZM354 376 263 371ZM146 376 237 371ZM124 237 129 28ZM376 237 371 28ZM376 263 371 472ZM124 263 129 472ZM237 129 28 15ZM263 129 472 15ZM263 371 472 485ZM237 371 28 485ZM129 28 15 144ZM371 28 485 144ZM371 472 485 356ZM129 472 15 356ZM28 15 144 77ZM472 15 356 77ZM472 485 356 423ZM28 485 144 423ZM15 144 77 92ZM485 144 423 92ZM485 356 423 408ZM15 356 77 408ZM144 77 92 97ZM356 77 408 97ZM356 423 408 403ZM144 423 92 403ZM77 92 97 3ZM423 92 403 3ZM423 408 403 497ZM77 408 97 497ZM92 97 3 22ZM408 97 497 22ZM408 403 497 478ZM92 403 3 478ZM97 3 22 148ZM403 3 478 148ZM403 497 478 352ZM97 497 22 352ZM3 22 148 203ZM497 22 352 203ZM497 478 352 297ZM3 478 148 297ZM22 148 203 38ZM478 148 297 38ZM478 352 297 462ZM22 352 203 462ZM148 203 38 245ZM352 203 462 245ZM352 297 462 255ZM148 297 38 255ZM203 38 245 60ZM297 38 255 60ZM297 462 255 440ZM203 462 245 440ZM38 245 60 24ZM462 245 440 24ZM462 255 440 476ZM38 255 60 476ZM245 60 24 31ZM255 60 476 31ZM255 440 476 469ZM245 440 24 469ZM60 24 31 209ZM440 24 469 209ZM440 476 469 291ZM60 476 31 291Z" /></svg>